<svg xmlns="http://www.w3.org/2000/svg" width="980" height="980" viewBox="0 0 980 980"><defs><filter id="a" x="-.019" width="1.038" y="-.009" height="1.018" color-interpolation-filters="sRGB"><feGaussianBlur stdDeviation="1.984"/></filter></defs><g transform="translate(377.364 294.32)"><circle cx="112.636" cy="195.681" r="477.143" fill="#545454"/><path d="M7.25 458.634V67.078q0-70.256 31.617-109.44 31.616-39.182 88.093-39.182 46.478 0 75.122 24.32 28.643 24.32 28.643 64.042 0 31.887-18.375 58.775-18.375 26.887-54.856 48.775 48.37 15.404 75.8 47.695 27.427 32.292 27.427 73.906 0 53.775-37.156 88.23-37.156 34.453-95.254 34.453-34.86 0-67.827-11.35v111.332zm73.231-353.453h9.727q34.86 0 60.937-28.239 26.077-28.239 26.077-65.799 0-26.213-13.512-39.453-13.511-13.24-40.263-13.24-31.617 0-47.289 25.13Q60.484 8.71 60.484 58.702v242.39q38.643 17.566 68.367 17.566 32.697 0 55.532-23.645 22.833-23.644 22.833-56.881 0-42.155-31.616-67.556-31.617-25.401-84.58-25.401H80.481z" fill="#222" filter="url(#a)"/><path d="M4.472 454.341V62.785q0-70.257 31.617-109.44 31.616-39.182 88.093-39.182 46.478 0 75.123 24.32 28.643 24.32 28.643 64.042 0 31.887-18.376 58.775-18.375 26.886-54.855 48.775 48.37 15.404 75.799 47.695 27.427 32.292 27.427 73.906 0 53.775-37.156 88.23-37.156 34.453-95.254 34.453-34.859 0-67.827-11.35v111.332zm73.231-353.453h9.727q34.86 0 60.938-28.239Q174.444 44.41 174.444 6.85q0-26.213-13.511-39.453-13.512-13.24-40.264-13.24-31.617 0-47.289 25.13-15.674 25.13-15.674 75.121v242.39q38.643 17.566 68.368 17.566 32.696 0 55.53-23.645 22.834-23.644 22.834-56.882 0-42.154-31.616-67.555-31.617-25.401-84.58-25.401H77.703z" fill="#fff"/></g></svg>